<svg xmlns="http://www.w3.org/2000/svg" width="1200" height="1700" viewBox="0 0 1200 1700" role="img" aria-labelledby="title desc">
  <title id="title">Poster ERP Quan ly khach hang va van ban</title>
  <desc id="desc">Poster gioi thieu he thong ERP quan ly nhan su, khach hang va van ban tren Odoo.</desc>
  <defs>
    <linearGradient id="hero" x1="0" y1="0" x2="1" y2="1">
      <stop offset="0" stop-color="#0f766e"/>
      <stop offset="0.48" stop-color="#2563eb"/>
      <stop offset="1" stop-color="#7c3aed"/>
    </linearGradient>
    <linearGradient id="soft" x1="0" y1="0" x2="1" y2="1">
      <stop offset="0" stop-color="#ecfeff"/>
      <stop offset="1" stop-color="#eef2ff"/>
    </linearGradient>
    <style>
      .bg { fill: #f8fafc; }
      .hero { fill: url(#hero); }
      .card { fill: #ffffff; stroke: #dbe3ef; stroke-width: 2; rx: 24; }
      .soft { fill: url(#soft); stroke: #cbd5e1; stroke-width: 2; rx: 22; }
      .dark { fill: #0f172a; }
      .muted { fill: #475569; }
      .white { fill: #ffffff; }
      .teal { fill: #0f766e; }
      .blue { fill: #2563eb; }
      .violet { fill: #7c3aed; }
      .orange { fill: #f97316; }
      .title { font: 800 54px Arial, sans-serif; letter-spacing: 0; }
      .subtitle { font: 500 24px Arial, sans-serif; }
      .section { font: 800 28px Arial, sans-serif; }
      .label { font: 700 22px Arial, sans-serif; }
      .body { font: 400 18px Arial, sans-serif; }
      .small { font: 400 15px Arial, sans-serif; }
      .tiny { font: 400 13px Arial, sans-serif; }
      .chip { fill: #e0f2fe; stroke: #7dd3fc; stroke-width: 1.4; rx: 16; }
      .line { stroke: #94a3b8; stroke-width: 2.2; fill: none; }
      .arrow { stroke: #2563eb; stroke-width: 3; fill: none; marker-end: url(#arrowhead); }
    </style>
    <marker id="arrowhead" viewBox="0 0 10 10" refX="9" refY="5" markerWidth="8" markerHeight="8" orient="auto-start-reverse">
      <path d="M 0 0 L 10 5 L 0 10 z" fill="#2563eb"/>
    </marker>
  </defs>

  <rect class="bg" width="1200" height="1700"/>

  <rect x="0" y="0" width="1200" height="360" class="hero"/>
  <text x="600" y="70" text-anchor="middle" class="white small">AIoTLab - Faculty of Information Technology - DaiNam University</text>
  <text x="600" y="146" text-anchor="middle" class="white title">ERP: QUAN LY KHACH HANG</text>
  <text x="600" y="210" text-anchor="middle" class="white title">&amp; VAN BAN</text>
  <text x="600" y="264" text-anchor="middle" class="white subtitle">He thong Odoo tich hop QLNS - QLVB - QLKH - AI Assistant</text>
  <rect x="382" y="298" width="436" height="42" rx="21" fill="#ffffff" opacity="0.16"/>
  <text x="600" y="326" text-anchor="middle" class="white body">Thuc tap doanh nghiep - Nhom 10 - CNTT 17-02</text>

  <rect x="72" y="410" width="1056" height="170" class="card"/>
  <text x="106" y="462" class="dark section">Muc tieu he thong</text>
  <text x="106" y="508" class="muted body">So hoa quy trinh quan ly nhan su, khach hang va van ban tren nen tang Odoo.</text>
  <text x="106" y="540" class="muted body">Lien ket du lieu tap trung, giam thao tac thu cong, ho tro theo doi trang thai va ra quyet dinh nhanh hon.</text>

  <text x="72" y="650" class="dark section">Phan he chinh</text>
  <rect x="72" y="686" width="330" height="230" class="card"/>
  <circle cx="128" cy="744" r="34" fill="#ccfbf1"/>
  <text x="128" y="755" text-anchor="middle" class="teal label">HR</text>
  <text x="178" y="734" class="dark label">QLNS</text>
  <text x="178" y="762" class="muted small">Quan ly nhan su</text>
  <text x="108" y="816" class="muted body">Ho so nhan vien</text>
  <text x="108" y="848" class="muted body">Phong ban, chuc vu</text>
  <text x="108" y="880" class="muted body">Hop dong, cham cong, luong</text>

  <rect x="435" y="686" width="330" height="230" class="card"/>
  <circle cx="491" cy="744" r="34" fill="#dbeafe"/>
  <text x="491" y="755" text-anchor="middle" class="blue label">DOC</text>
  <text x="541" y="734" class="dark label">QLVB</text>
  <text x="541" y="762" class="muted small">Quan ly van ban</text>
  <text x="471" y="816" class="muted body">Van ban den / di</text>
  <text x="471" y="848" class="muted body">Trang thai xu ly</text>
  <text x="471" y="880" class="muted body">AI phan tich noi dung</text>

  <rect x="798" y="686" width="330" height="230" class="card"/>
  <circle cx="854" cy="744" r="34" fill="#ede9fe"/>
  <text x="854" y="755" text-anchor="middle" class="violet label">CRM</text>
  <text x="904" y="734" class="dark label">QLKH</text>
  <text x="904" y="762" class="muted small">Quan ly khach hang</text>
  <text x="834" y="816" class="muted body">Ho so khach hang</text>
  <text x="834" y="848" class="muted body">Don hang, thanh toan</text>
  <text x="834" y="880" class="muted body">Cham soc khach hang AI</text>

  <rect x="72" y="980" width="1056" height="310" class="soft"/>
  <text x="106" y="1034" class="dark section">Kien truc va tich hop</text>
  <rect x="132" y="1088" width="190" height="86" rx="18" fill="#ffffff" stroke="#cbd5e1" stroke-width="2"/>
  <text x="227" y="1124" text-anchor="middle" class="dark label">Client</text>
  <text x="227" y="1152" text-anchor="middle" class="muted small">Browser / App 8070</text>

  <rect x="410" y="1088" width="240" height="86" rx="18" fill="#ffffff" stroke="#cbd5e1" stroke-width="2"/>
  <text x="530" y="1124" text-anchor="middle" class="dark label">Odoo Server</text>
  <text x="530" y="1152" text-anchor="middle" class="muted small">Models / Views / Security</text>

  <rect x="738" y="1060" width="170" height="78" rx="18" fill="#ffffff" stroke="#cbd5e1" stroke-width="2"/>
  <text x="823" y="1094" text-anchor="middle" class="dark label">PostgreSQL</text>
  <text x="823" y="1120" text-anchor="middle" class="muted small">Database</text>

  <rect x="738" y="1170" width="240" height="78" rx="18" fill="#ffffff" stroke="#cbd5e1" stroke-width="2"/>
  <text x="858" y="1204" text-anchor="middle" class="dark label">Google Gemini API</text>
  <text x="858" y="1230" text-anchor="middle" class="muted small">Tom tat / phan tich / goi y</text>

  <path d="M 322 1131 L 410 1131" class="arrow"/>
  <path d="M 650 1118 L 738 1099" class="arrow"/>
  <path d="M 650 1148 L 738 1209" class="arrow"/>

  <rect x="72" y="1346" width="500" height="170" class="card"/>
  <text x="106" y="1396" class="dark section">Cong nghe su dung</text>
  <rect x="106" y="1430" width="92" height="34" class="chip"/>
  <text x="152" y="1453" text-anchor="middle" class="blue small">Odoo</text>
  <rect x="216" y="1430" width="104" height="34" class="chip"/>
  <text x="268" y="1453" text-anchor="middle" class="blue small">Python</text>
  <rect x="338" y="1430" width="120" height="34" class="chip"/>
  <text x="398" y="1453" text-anchor="middle" class="blue small">JavaScript</text>
  <rect x="106" y="1476" width="92" height="34" class="chip"/>
  <text x="152" y="1499" text-anchor="middle" class="blue small">XML</text>
  <rect x="216" y="1476" width="136" height="34" class="chip"/>
  <text x="284" y="1499" text-anchor="middle" class="blue small">PostgreSQL</text>
  <rect x="370" y="1476" width="110" height="34" class="chip"/>
  <text x="425" y="1499" text-anchor="middle" class="blue small">Gemini</text>

  <rect x="628" y="1346" width="500" height="170" class="card"/>
  <text x="662" y="1396" class="dark section">Thanh vien thuc hien</text>
  <text x="662" y="1432" class="muted body">Le Son Quang - Tran Van Thinh</text>
  <text x="662" y="1464" class="muted body">Nguyen Thi Hoa - Ha Quang Dung</text>
  <text x="662" y="1504" class="muted small">Lop CNTT 17-02 - Nhom 10</text>

  <rect x="72" y="1564" width="1056" height="82" rx="24" fill="#0f172a"/>
  <text x="106" y="1604" class="white label">Demo:</text>
  <text x="184" y="1604" class="white body">https://drive.google.com/file/d/1XpkW_k6fBDpILEwmaxLWcl24tdXTLVJb/view</text>
  <text x="106" y="1634" class="white small">© 2024 AIoTLab, Faculty of Information Technology, DaiNam University</text>
</svg>
